<?xml version="1.0" encoding="UTF-8"?>
<svg xmlns="http://www.w3.org/2000/svg" viewBox="0 0 1522.9 290.5" fill="#FFF">
  <path d="M671.8,77.5c0,20.1,0,40.3,0,60.4,0,5.6,0,5.6-5.8,5.6-11.8,0-23.7-.1-35.5,0-3.3,0-5.8-1-8.1-2.9-15.8-12.8-31.6-25.6-47.4-38.5-20.9-17.1-41.8-34.2-62.6-51.3-1.2-1-2.7-2-4-1.4-1.5.7-.9,2.6-.9,4,0,27.3,0,54.6,0,81.9q0,8.2-8.1,8.2c-7.3,0-14.7-.2-22,0-3.6.1-5.1-.9-4.9-4.8.3-6.8,0-13.7,0-20.5,0-34,0-67.9,0-101.9,0-5.2,0-5.2,5.1-5.2,12.3,0,24.7.1,37,0,3.1,0,5.5.8,7.7,2.7,21.2,17.4,42.5,34.9,63.7,52.3,15.1,12.4,30.3,24.7,45.5,36.9,1.1.9,2.3,3.1,4.2,1.8,1.4-.9.7-2.7.7-4.1,0-28,0-55.9,0-83.9,0-5.5,0-5.5,5.3-5.6,8.2,0,16.3,0,24.5,0,5.5,0,5.5,0,5.5,5.3,0,20.3,0,40.6,0,60.9Z"/>
  <path d="M884.9,45.5c-21.2,0-42.3.2-63.5,0-22.1-.2-35,20.3-29.6,40.6,3.8,14,17.2,22.3,29.9,22.2,42.5-.2,85,0,127.5,0q6.5,0,6.5,6.5c0,8.2-.1,16.3,0,24.5,0,3.2-1,4.3-4.3,4.3-43.3,0-86.6.4-130-.3-16.5-.3-32.3-5.2-44.8-17.2-8.1-7.8-14.1-16.8-17.7-27.6-1.8-5.6-2-11.3-3.4-16.9-1.2-4.5.2-9.2.8-13.8,1.3-10,4.2-19.3,9.8-27.6,9-13.5,21.3-22.5,37.1-27.1,7.2-2.1,14.4-2.2,21.6-2.2,41.5-.4,83-.2,124.5-.2,6.3,0,6.3,0,6.3,6.4,0,8-.2,16,0,24,.1,3.8-1.3,4.8-4.9,4.7-22-.1-44,0-66,0Z"/>
  <path d="M1039.4,76.9c0-20.3,0-40.6,0-60.9,0-3.7.9-4.9,4.7-4.8,8.8.3,17.7.2,26.5,0,3.3,0,4.2,1.1,4.2,4.3-.1,12.3,0,24.6,0,37q0,6.9,6.7,6.9c31,0,62,0,92.9.4,6.3,0,11.9-.6,17.5-3.8,4.2-2.4,6.6-6.1,8.5-10,2.7-5.8,4.5-12.1,4-18.8-.3-4.1,0-8.3,0-12.5,0-2.5.6-3.6,3.4-3.6,9.5.1,19,0,28.5,0,2.2,0,3.5.5,3.4,3-.3,9.6.4,19.3-.5,28.9-.7,7.2-4.1,12.8-8.4,18.1-2.7,3.4-5.2,6.8-7.4,10.6-1.7,3-1.4,5.4-.1,8.4,2.6,5.9,6.7,10.6,10.4,15.7,3.9,5.5,5.7,11.6,6,18.2.3,8.3,0,16.6.1,25,0,3.1-1,4.5-4.3,4.4-9-.2-18-.2-27,0-3,0-4.1-.8-4.1-3.9.2-6.7-.4-13.3.1-20,.8-10.3-5-15.8-13.1-20.3-6.9-3.8-14.1-5-21.9-4.9-29.5.3-59,0-88.4,0-6.2,0-6.3,0-6.3,6.4,0,12.5,0,25,0,37.5,0,5.1,0,5.1-5.3,5.2-8,0-16,0-24,0-5.9,0-5.9,0-5.9-6.2,0-20.1,0-40.3,0-60.4Z"/>
  <path d="M1423.3,108.2c11.2,0,22.3-.2,33.5,0,17.2.4,31.3-12.7,31.5-31.8.2-20,0-40,0-60,0-5.4,0-5.4,5.5-5.4,8.5,0,17,0,25.5,0,2.6,0,3.7.5,3.7,3.5-.2,21.8,0,43.5-.3,65.3-.2,17-6.5,32-18.5,44-10.9,11-24.4,16.8-40,18.5-7.5.8-14.9,1-22.3,1-14,0-28,0-42,0-11.7,0-23.1-1.1-34.2-4.9-14.6-4.9-25.4-14.5-33.2-27.5-7.2-12-9.3-25.2-9.2-39,.2-18.7.1-37.3,0-56,0-3.9,1-5.2,5-5,8.2.3,16.3,0,24.5,0,5.8,0,5.8,0,5.8,6.1,0,20.2,0,40.3,0,60.5,0,13.5,6.6,22.8,18.6,28.3,3.5,1.6,7.3,2.1,11.1,2.1,11.7,0,23.3,0,35,0Z"/>
  <path d="M156.7,188.7c0,10.2-.1,20.3,0,30.5,0,3.9-1.2,6.9-4.1,9.7-20.1,19.6-40,39.3-60,59-2.8,2.8-6.5,3.6-8.3,1.9-2-1.8-1.2-6.1,1.5-8.8,18.8-18.6,37.4-37.3,56.5-55.6,5-4.7,4.6-9.9,4.3-15.4-.2-3.2-2.2-1.2-3-.5-3.7,3.4-7.1,6.9-10.7,10.4-13.7,13.6-27.3,27.2-41,40.8-2.4,2.3-5,2.7-7.6.8-2-1.5-1.4-5.3,1.1-7.8,14.9-14.9,29.9-29.7,44.8-44.6,4.6-4.6,9.2-9.2,13.8-13.8,2.4-2.4,4-11.4,2.6-14.5-.6-1.4-1.5-1.1-2.3-.3-1.2,1.1-2.4,2.2-3.6,3.4-15.4,15.4-30.7,30.7-46.1,46.1-1.3,1.3-2.4,2.7-4.1,3.6-2.4,1.2-4.9,1.2-6.4-.6-1.5-1.8-1.2-4.4.2-6.5.6-1,1.6-1.7,2.4-2.5,18.8-18.8,37.7-37.7,56.6-56.5,2.6-2.5,4.2-5.1,3.6-8.7-1.1-7.2,2.1-12.4,7.5-16.8,2.2-1.8,3.7-4.4,5.9-6,3.7-2.6,3.2-4.4.3-7.3-30.6-30.4-61.1-60.9-91.6-91.5-3.1-3.1-6.2-4-10.2-3.2-7.3,1.5-13.1-1.2-17.2-7.1-3.8-5.5-3.9-11.4-.9-17.4C44.1,2.6,53-1.4,60.6.5c7,1.7,13.5,10.2,13.2,17.4,0,1,.1,2.2-.4,2.9-2.9,3.8-.8,6.1,1.9,8.8,30.7,30.5,61.3,61.2,92,91.8,3.8,3.8,4.1,3.7,7.8-.2,1.8-1.9,3.7-3.8,5.7-5.6,2.1-1.9,1.9-3.5,0-5.4-6.5-6.4-12.9-12.8-19.4-19.2-8.9-8.8-17.8-17.7-26.7-26.5-7.4-7.3-14.9-14.6-22.1-22-2.3-2.4-4.7-1.9-7.2-1.2-8.1,2.1-16.8-2.6-19.6-10.7-2.9-8.3,1.4-17.6,8.9-21.4,9.7-4.8,22.5.4,25.1,14.4.4,1.9-.4,3.7-1,5.3-1.2,3.3-.2,5.4,2.2,7.8,15,14.8,29.9,29.7,44.7,44.6,6.9,6.9,13.7,13.9,20.6,20.8,4.1,4.1,4.2,4,8.2,0,8.6-8.6,17.2-17.2,25.8-25.8,2.1-2,3-3.5,1.7-7.1-3.5-9.4,1.1-19.5,10-22.1,9.7-2.9,17.3-.8,22.2,9.7,2.6,5.6,1.6,11.9-2.6,17.2-3.7,4.7-8.8,6.7-14.4,5.8-4.4-.7-7.5.6-10.4,3.6-13.8,14-27.8,28-41.7,41.9-8.3,8.4-16.6,16.8-25.1,25-2.1,2-3,3.9-3,6.8.2,10.5,0,21,0,31.5ZM48.8,17.2c0,4.4,3.4,8.1,7.5,8,3.9-.1,7.1-3.5,7.2-7.4.1-4.8-2.2-7.2-7.2-7.2-5.5,0-7.5,1.7-7.5,6.7ZM237.8,70.9c3.6.2,7.5-3.8,7.6-7.8,0-3.7-3.3-7.3-7.1-7.5-3.5-.2-8.4,4.3-8.4,7.7,0,3.2,4.4,7.5,7.9,7.6ZM109.5,24.8c0-4-3-7.2-7.1-7.3-5-.1-7.8,2.3-7.8,6.8,0,4.3,3,7.7,7.2,7.8,4.2.1,7.7-3.1,7.7-7.3Z"/>
  <path d="M168.4,202.4c0-11.3.1-22.7,0-34,0-3.2.9-5.6,3.2-7.9,30.8-30.6,61.4-61.3,92.2-91.8,2.9-2.8,4-5.3,2.9-9.5-2.6-10.2,5.3-19.8,16.4-20.5,8.1-.5,15.8,4.4,17.6,11.8,2.2,9-1,17.3-9,20.9-3.1,1.5-6.5,2.1-10,1.4-4.5-.9-8,0-11.5,3.6-29.2,29.5-58.5,58.8-88,88-3.1,3-4.5,6.1-4.4,10.5.2,18.3.3,36.6,0,55,0,5.4,2.1,9,5.7,12.5,11.7,11.3,23.2,22.9,34.7,34.4,1.1,1.1,2,2.2,3,3.3,1.6,1.8,2.3,3.6.4,5.7-1.8,2-3.8,2.6-6.2,1.5-1.5-.7-2.9-1.6-4.1-2.8-13.5-13.5-27.1-27-40.7-40.4-1.8-1.8-2.3-3.8-2.3-6.2,0-11.8,0-23.6,0-35.5ZM290.5,55.9c0-4.7-2.3-7.2-6.7-7.3-3.6,0-7.8,3.8-7.8,7.3,0,3.2,4.2,7.2,7.6,7.3,4.1,0,6.9-2.9,6.9-7.2Z"/>
  <path d="M186.5,203c-3.5-13.7,3.5-22.6,12.9-31.5,19.7-18.6,38.5-38.3,57.8-57.4,2.7-2.7,3.7-4.8,2.1-8.6-3.1-7.6,3.9-18.9,11.9-20.3,11.1-2,16.7.2,21.2,9.6,5.3,10.9-3.6,24.4-14,23.8-3-.2-6,.5-8.9-.6-2.3-.8-3.2,1.3-4.4,2.5-18.7,18.6-37.4,37.2-56.1,55.8-4.1,4.1-9.6,7.7-11.7,12.7-2.1,5,0,11.5-.8,17.3-1.1,8.6,2.3,14.6,8.5,20.2,10.8,9.9,20.8,20.5,31.2,30.8,1,1,2,2.2,2.9,3.4,1.4,1.8,2.6,3.9.6,5.8-1.7,1.6-3.4,3-6.6,1.6-3-1.4-4.6-3.8-6.6-5.8-12.3-12.2-24.5-24.6-36.8-36.8-2.6-2.5-3.6-5.4-3.4-8.9.2-4.5,0-9,0-13.5ZM283.4,101.8c0-4.5-2.5-7.2-6.9-7.3-3.9-.1-7.9,3.7-7.7,7.5.1,2.9,4.3,6.9,7.4,7,3.7.2,7.1-3.3,7.1-7.2Z"/>
  <path d="M322.7,111.6c-.9,0-1.7.2-2.2,0-6.2-2.6-9.8,1.6-13.4,5.2-14.1,14.1-28,28.4-42.1,42.4-14.1,14.1-28.4,28.1-42.6,42.2-3.4,3.4-3.6,4.3-.2,7.7,8,7.9,16.1,15.8,24.2,23.7,1.7,1.6,3.4,3.1,4.7,5.1,1.3,2.2,2.2,4.4,0,6.2-1.8,1.5-3.9,2.5-6.7.8-3.5-2.3-6-5.5-9-8.3-8.7-8.3-17.1-17-25.5-25.6-4.6-4.7-4.6-7,0-11.7,18.3-18.4,36.7-36.7,55.1-55,12.8-12.8,25.6-25.7,38.5-38.4,2.2-2.2,2.7-4,1.8-6.9-3.7-11.9,6.9-23.7,19.3-21.7,7.9,1.3,14.2,7.2,15.1,14.3,1.1,8-3.2,15.5-10.5,19.1-2.3,1.1-4.5.7-6.6.9ZM322.1,101.2c4.7,0,7.3-2.3,7.3-6.7,0-4.2-2.8-7.2-7-7.2-4.1,0-7.7,3.4-7.6,7.4,0,3.5,3.3,6.4,7.3,6.4Z"/>
  <path d="M80.6,162.6c0-10.2-.1-20.3,0-30.5,0-4.1-1.1-7.2-4.1-10.1-15.5-15.3-31-30.6-46.2-46.3-3-3.1-6.2-3.6-9.8-3-10.8,1.5-16.6-3-19.7-11.4-3.1-8.3,2.3-19.8,10.6-22,9.7-2.6,18.2,1.4,22.4,10.6,1.7,3.7,1.5,7.7.5,11.2-.9,3.4.3,4.9,2.3,6.8,16.5,16.4,32.9,33,49.5,49.3,3.2,3.2,4.6,6.5,4.6,11-.2,22,0,43.9,0,65.9,0,2-.1,3.9-.7,5.9-.7,2.4-2.4,2.8-4.1,2.9-2,.1-3.9-.6-4.6-2.9-.6-1.8-.7-3.6-.7-5.4,0-10.7,0-21.3,0-32ZM24.4,55.9c.4-4.5-2.3-6.6-6.9-7.2-3.5-.4-7.7,3.9-7.7,7.4,0,3.3,4,7,7.6,7,3.9,0,7-3.1,7-7.3Z"/>
  <path d="M116.4,150.3c0-7.5,0-15,0-22.5,0-2.9-.8-5.2-2.8-7.2-13.2-13.1-26.3-26.2-39.4-39.4-2.3-2.3-4.8-2-7.4-1.5-10,1.9-18-3-20.9-12.9-2.2-7.5,3.1-18.1,11.2-20.2,5.7-1.5,12.2-1.9,17.4,2.9,5.4,4.9,7.7,11,5.8,17.9-1,3.8,0,5.7,2.4,8.2,13.3,13.1,26.3,26.3,39.6,39.3,2.6,2.6,3.8,5.4,3.8,8.7,0,15.8-.1,31.6-.2,47.4,0,1.3-.2,2.6-.2,3.9,0,3.3-2.1,4.3-4.9,4.3-2.9,0-4.6-1.4-4.6-4.6,0-8.2,0-16.3,0-24.5ZM70.4,63.5c0-4.5-3-7.8-7.3-7.7-3.7,0-7.3,3.7-7.3,7.4,0,3.5,3.4,6.9,7,7,4.1.2,7.5-2.8,7.6-6.8Z"/>
  <path d="M765.7,262.5c0,5,0,10,0,15,0,2.5-1,3.1-3.3,3.1-2.4,0-3.2-.9-3.2-3.2.1-3,0-6,0-9,0-1.2-.2-2.8-1.2-3.1-1.5-.5-1.5,1.4-2,2.3-1.8,3-2.9,6.4-3.9,9.6-1,3-2.4,3.4-5,3.5-2.8,0-4.8-.8-5.8-3.5-1.2-3.2-2.5-6.4-3.8-9.6-.3-.7-.3-2-1.4-1.6-.6.2-1.2,1.3-1.3,2-.2,3-.2,6-.2,9,0,2.3-.4,3.8-3.3,3.8-2.9,0-3.2-1.7-3.2-3.9,0-9.3,0-18.6,0-27.9,0-1.9-.1-3.8,2.4-4.2,2.7-.5,5,0,6.2,2.8,2,4.9,3.9,9.8,5.8,14.7.9,2.3,1.7,4.6,2.9,6.7.7,1.3,1.7,2.5,2.8-.4,2.6-7.1,5.9-13.9,8.5-21,1.3-3.6,4-3,6.5-2.8,3.1.2,2.1,2.9,2.2,4.6.1,4.5,0,9,0,13.5Z"/>
  <path d="M1196.7,262.6c0,4.3,0,8.7,0,13,0,2.6.2,5.1-3.7,4.9-4.1-.2-2.5-3.2-2.7-5.1-.2-2.6,0-5.3-.1-8,0-.9-.2-2.1-1.4-2.2-1,0-1.2,1-1.6,1.7-1.5,3.3-3.3,6.5-4.2,10-.8,3-2.4,3.5-5,3.6-2.8,0-4.8-.7-5.7-3.6-1.1-3.3-2.6-6.4-3.8-9.7-.4-1-.6-2.1-1.8-2-1.9.2-1,1.8-1,2.7-.1,3-.1,6,0,9,0,2.1-.6,3.5-3.1,3.5-2.4,0-3.3-.9-3.3-3.3,0-9.8,0-19.6,0-29.4,0-2,.7-3.3,2.7-3.4,1.9-.1,4-.6,5.1,1.9,2.1,5.2,4.3,10.3,6.6,15.4,1.3,2.9,1.1,6.6,4.7,8.1,1.1-2.6,2.4-5.2,3.3-7.9,1.8-5,4.2-9.7,6.1-14.6,1.2-3.1,3.4-3.3,6-3,3,.3,3,2.5,2.9,4.8,0,4.5,0,9,0,13.5Z"/>
  <path d="M1461.3,262.4c0-4.3,0-8.6,0-13,0-1.7-.7-4,1.6-4.7,2.4-.8,4.9-.9,6.9,1.3,2,2.2,3.3,4.9,4.8,7.4,2.3,4,4.8,7.9,7.2,11.8.4.6.7,1.7,1.7,1.5,1-.2.7-1.4.7-2.1,0-5.2,0-10.3,0-15.5,0-2.5,0-4.7,3.4-4.8,3.6-.1,4,2,3.9,4.8,0,8.6,0,17.3,0,25.9,0,1.9,1.2,4.8-2,5.3-2.9.4-6.1.9-8-2.3-3.1-5.2-6.1-10.6-9.4-15.7-.9-1.5-1.9-4.2-3.2-3.9-2.2.6-1.3,3.4-1.3,5.3-.1,4.2,0,8.3,0,12.5,0,2.2.3,4.3-3.1,4.4-3.3,0-3.3-1.8-3.3-4.2,0-4.7,0-9.3,0-14Z"/>
  <path d="M1024.7,262.6c0,4.3.1,8.7,0,13,0,1.7,1.4,4.5-1.8,4.8-2.6.2-5.5,1.1-7.3-2.3-3.1-5.6-6.7-11-10-16.5-.4-.7-.8-1.5-1.3-2.1-.4-.5-1-1.3-1.4-1.3-1,0-1,1.1-1,1.9,0,5.7-.1,11.3,0,17,0,2.6-.8,3.6-3.4,3.5-2,0-3-.6-3-2.9,0-10.2,0-20.3,0-30.5,0-1.4.2-2.7,2-2.9,2.9-.3,5.7-.3,7.4,2.7,2.7,4.5,5.3,9.1,8.1,13.6,1.3,2.2,2.7,6.4,4.4,5.8,2.3-.7.8-4.6,1-7.2.2-3.7.2-7.3,0-11-.1-2.8,1.1-4,3.8-4,2.8,0,2.6,2,2.6,3.8,0,4.8,0,9.7,0,14.5Z"/>
  <path d="M1108.3,262.6c-1-9.2,6.9-18,17.9-18.1,10.4,0,18,7.9,18.2,18.2.2,10-7.8,17.2-18,17.9-8.7.6-19.8-9-18.1-18.1ZM1126.7,251.4c-7,0-12.1,4.5-12,11,.2,7.9,5.2,11.4,11.5,11.7,6.4.3,11.1-4.8,11.4-11.2.3-5.2-5.1-12.6-11-11.4Z"/>
  <path d="M542.4,262.4c-.8-9.1,7-18.1,18.2-17.9,11.1.2,17.8,8,18,17.9.2,11.5-9.8,18.2-18.1,18.3-9.4.1-19.4-9.5-18-18.3ZM572.3,262.6c-.9-5.3-4-11.6-12.4-11.4-6.1.1-11.2,5.7-11.2,11.5,0,5.9,5.5,11.4,11.5,11.4,6.1,0,12.1-5.8,12.1-11.5Z"/>
  <path d="M620.8,262.2c.5,0,1,0,1.5,0,8,0,9.3,2.4,5.3,9.4-3.9,6.9-12.5,10.5-20.6,8.7-6.8-1.5-12.5-8.5-13.4-16.2-.8-7.4,3.7-15.5,11-18.3,5.2-2,10.7-2.2,15.8.8,1.1.7,4,1,2.4,3.2-1.2,1.6-1.9,4.5-5.7,2.7-6-2.7-11.7-1.5-15.1,3.9-2.5,3.9-1.8,10.9,1.1,13.7,3.9,3.8,9.5,5.1,14.1,2.6,1-.5,2.3-1.3,2.1-2.5-.3-1.5-1.9-.9-3-.9-2.8.1-4.5-.6-4.6-3.8,0-3.4,2.1-3.7,4.7-3.6,1.5,0,3,0,4.5,0Z"/>
  <path d="M1428.1,280.5c-9.5.9-18.5-8.3-18-18,.5-10.5,7.7-18.1,18.3-18,11.7.2,18.2,9.6,18,18-.3,12.2-9.9,19-18.3,18ZM1428.1,251.4c-6.5,0-11.1,4.7-11.5,10.9-.3,6.6,5.3,11.6,11.5,11.8,6.1.2,12.2-5.7,12.1-11.5,0-5.9-5.8-11.2-12.1-11.2Z"/>
  <path d="M971.9,262.2c.3,0,.7,0,1,0,8.6,0,9.4,1.1,5.6,8.6-3.2,6.3-9.5,10.5-18.6,9.8-6.7-.5-12.2-4.7-14.6-11.5-3.4-9.6,0-19,9.4-23,5.3-2.3,11.2-2.6,16.6,1,1.3.8,3.1,1.4,1.8,3.2-1.1,1.5-2.1,4.2-5,2.4-3.2-2-7-1.8-10.1-.7-3.8,1.3-6.6,4.3-7.1,8.8-.5,4.8.8,9.1,5.2,11.6,4.1,2.4,8.5,2.5,12.6-.3.6-.4,1.7-.9,1.5-1.8-.3-1.3-1.7-.7-2.5-.8-2-.1-4.2.3-4.7-2.4-.5-2.6-.2-4.8,3.2-4.8,2,0,4,0,6,0h0Z"/>
  <path d="M813,280.5c-8.8-.2-7.5,1.2-7.6-7.7,0-8.2,0-16.3,0-24.5,0-3,.9-4.2,4-4.1,4.6.2,9.4-.1,13.7,1.9,7.9,3.7,12,12.2,10.2,20-1.9,8.6-9.5,15.3-18.2,14.4-.7,0-1.3,0-2,0ZM826.3,261.6c1.2-4.1-2.2-6.5-5.3-9-2.4-2-5.4-1.6-8-.8-2.3.8-1.2,3.5-1.3,5.3-.1,4.5,0,8.9,0,13.4,0,3,1.5,3.7,4,3.5,6.6-.6,10.6-5,10.6-12.5Z"/>
  <path d="M644.5,262.8c0-4.8,0-9.6,0-14.5,0-2.7,1-4.1,3.8-4,3.1,0,6.3-.2,9.4.5,8.1,2,11.4,11,5.7,17.2-2.5,2.7-3,4.7-.9,7.7,1.3,1.9,1.8,4.2,2.7,6.3.6,1.4,2.8,3.1.4,4.1-2,.8-5,1.6-6.5-1.6-1.5-3.1-3.1-6.2-4.5-9.3-.5-1.2-.7-2.9-2.5-2.4-1.6.4-1.3,2.1-1.3,3.4,0,2.3,0,4.7,0,7,0,2.1-.4,3.5-3,3.4-2.3,0-3.4-.9-3.3-3.3,0-4.8,0-9.6,0-14.5ZM654.4,259.1c3.2,0,4.9-1.2,4.9-4,0-2.9-2.2-3.6-4.7-3.8-3.2-.1-3.8,1.5-3.8,4.3,0,3,1.6,3.7,3.7,3.5Z"/>
  <path d="M507.4,262.3c0-4.7.1-9.3,0-14,0-2.8,1.2-4,3.8-4,3,0,6,0,9,.3,7.2.8,12.5,10.8,6.2,17.5-2.4,2.6-2.4,4.6-1.1,7.4,1,2.1,1.9,4.2,2.7,6.4.5,1.4,3.3,3.1.5,4.4-2.2,1-5.1.7-6.6-1.9-1.1-2-1.6-4.3-2.7-6.2-1.1-1.9-1.2-5.5-3.8-5.1-3,.5-1.3,3.9-1.6,6-.2,1.5-.1,3,0,4.5.2,2.4-.8,3.2-3.2,3.2-2.3,0-3.3-.9-3.2-3.3,0-5,0-10,0-15ZM517.5,259.1c3.1,0,4.9-1.2,4.8-4,0-2.8-2.1-3.7-4.8-3.8-3.2,0-3.8,1.6-3.8,4.3,0,3,1.6,3.7,3.8,3.4Z"/>
  <path d="M684.6,280.4c-2.2,0-3.8-.1-2.8-3,3.8-10.2,7.6-20.3,11.2-30.6.9-2.6,2.6-2.6,4.6-2.6,2.1,0,3.6.3,4.5,2.8,2.7,7.8,5.9,15.4,8.5,23.1.7,2.2,2.4,3.9,2.3,6.5,0,1.2,1.6,2.7,0,3.5-1.7.7-3.9,1.1-5.6-.6-.7-.7-1-1.7-1.4-2.6-2.7-6.3-5.4-7.8-12.4-6.4-2.9.6-3,3.1-3.8,5.2-1,2.5-1.5,5.3-5.1,4.8ZM700.3,260.9c-.7-1.2-1.6-3-2.6-4.8-1.5,1.3-2.4,3.2-2.8,5-.4,1.7.5,2.8,2.4,2.9,1.7,0,2.9-.4,3-3.1Z"/>
  <path d="M1246.4,262.4c0-4.7,0-9.3,0-14,0-3,1.1-4.3,4.1-4.2,4.7,0,9.3.1,14,0,2.7,0,3.4,1.2,3.3,3.7,0,2.2-.7,3.5-3.1,3.4-2.3,0-4.7.1-7,0-2.8-.2-4.3.6-4.2,3.9,0,3,.9,4.3,4,4,2.1-.2,4.3,0,6.5,0,2.1,0,3.8,0,3.9,3,0,3.2-1.5,3.6-4,3.4-1.8-.1-3.7.1-5.5,0-3.3-.3-4.8.8-4.9,4.4,0,3.7,1.4,4.7,4.7,4.3,2-.2,4,0,6,0,2.4-.1,3.6.6,3.6,3.4,0,2.6-1.3,3-3.4,3-4.8,0-9.6,0-14.5,0-2.6,0-3.5-1.1-3.5-3.6,0-4.8,0-9.6,0-14.5Z"/>
  <path d="M848.3,262.8c0-4.8,0-9.7,0-14.5,0-2.8,1.1-4,3.8-4,4.7,0,9.3,0,14,0,2.4,0,3.7.9,3.7,3.6,0,2.7-1.6,3.4-3.9,3.4-2.3,0-4.7,0-7,0-2.7,0-4.4.4-4.2,3.8.1,3,1,4.3,4.1,4,2.5-.2,5,0,7.5,0,2.5-.1,3.6.6,3.6,3.3,0,3-1.6,3.2-3.8,3.1-2,0-4,0-6,0-3.2,0-5.4.5-5.4,4.6,0,4,2.1,4.3,5.1,4.2,2.3,0,4.7,0,7,0,2.5,0,3,1.4,3,3.6,0,2.3-1.3,2.7-3.2,2.7-5,0-10,0-15,0-2.4,0-3.3-.9-3.2-3.2,0-4.8,0-9.7,0-14.5Z"/>
  <path d="M471.8,262.2c0-4.5.1-9,0-13.4,0-3.2,1.4-4.5,4.4-4.6,3.3-.1,6.6,0,9.8.9,4.2,1.1,7.1,6,6.8,11.3-.3,4.4-4,8.4-8.4,9q-5.6.8-5.6,6.2c0,1.8,0,3.6,0,5.5,0,2.2-.7,3.4-3.1,3.4-2.4,0-3.9-.8-3.9-3.3,0-5,0-9.9,0-14.9,0,0,0,0,0,0ZM478.8,255.5c-.5,2.5.6,3.7,3.5,3.6,2.8-.1,3.9-2,3.8-4.2-.1-2.3-1.8-3.6-4.5-3.6-3.1,0-3,1.8-2.8,4.2Z"/>
  <path d="M1083.8,280.5c-9.7,0-16.8-5.7-18.4-14.6-1.6-8.6,2.7-17.1,10.9-20.1,5.3-1.9,11-2.2,16.1,1.1,1,.6,3.5,1.3,1.8,3.1-1.3,1.4-1.9,4.2-5.4,2.6-6.6-3.2-14.6-.5-16.6,6.9-1.2,4.4-.1,8,2.6,10.9,2.9,3,6.7,4.6,11.2,3.2,2.3-.7,4.7-2.6,7.3,0,1.8,1.8,2,3.2-.2,4.5-3.1,1.8-6.3,3-9.4,2.5Z"/>
  <path d="M897.6,251.4c-2.1.5-5.6-1.4-5.9,3-.2,2.5.6,4.4,3.4,4.5,2.1,0,3.9.8,5.7,1.5,5.2,1.9,7.6,6.2,6.9,11.7-.6,4.5-5.2,8.1-10.3,8.3-3.2.1-6.2,0-9.1-1.9-1.4-.9-3.5-1.2-2.3-3.5.9-1.7,2.3-3.4,4.7-2.7,1.4.4,2.8,1.1,4.2,1.5,2.8.7,5.1-.2,6-3,1-3-1.4-3.9-3.7-4.8-2.8-1.2-6.1-.1-8.8-2.8-3.5-3.6-4.9-7.8-3-12.5,1.5-3.8,5.9-6.6,10.4-6.3,1.8.1,3.7.3,5.4.8,1.6.5,4.2,1,3.8,3-.3,2.1-2.3,3.6-4.9,3.3-.8,0-1.7-.1-2.7-.2Z"/>
  <path d="M1211.3,262.3c0-4.8,0-9.6,0-14.5,0-2.5.8-3.8,3.4-3.6,2.6.1,5.3-.1,7.9.5,6,1.4,9.5,5.4,9,11-.6,6.2-4.8,9.9-9.9,9.7-2.9-.1-4.2,1.2-4.1,4.2.1,2.5,0,5,0,7.5,0,2.3-.9,3.2-3.3,3.3-2.4,0-3.2-.9-3.2-3.2.1-5,0-10,0-15ZM1217.7,255.5c-.2,2.3.5,3.6,3.2,3.6,3,0,4.2-2.1,4.2-4.4,0-2.4-2.2-3.4-4.6-3.3-3,0-2.9,2-2.8,4.2Z"/>
  <path d="M1363.7,266.3c0,3.7,0,7.3,0,11,0,2.2-.6,3.3-3.1,3.3-2.4,0-3.9-.6-3.9-3.2,0-7-.2-14,0-20.9.1-3.9-1.1-5.5-5.1-5.1-1.7.1-3.8.8-5-1.1-1.6-2.5.2-5.8,3.2-5.8,6.8,0,13.6,0,20.4,0,2.1,0,4.2.2,4.1,3,0,2.8-1.4,4.3-4.3,4-1.2-.1-2.3,0-3.5,0-2.1,0-2.9.9-2.9,3,.1,4,0,8,0,12h0Z"/>
  <path d="M1293.3,266.2c0-3.2,0-6.3,0-9.5q0-5.3-5.1-5.5c-1,0-2,0-3-.1-2-.2-2.8-1.3-2.9-3.3,0-2,.7-3.4,2.7-3.4,7.6-.1,15.3-.1,22.9,0,2,0,2.9,1.3,2.8,3.3,0,1.9-.7,3.2-2.7,3.5-.2,0-.3,0-.5,0-2.4.4-5.4-1.1-7.1,1.1-1.7,2.3-.6,5.5-.7,8.2-.1,5.5-.1,11,0,16.4,0,2.6-.8,3.5-3.4,3.5-2.5,0-3.1-1.2-3-3.4,0-3.6,0-7.3,0-11Z"/>
  <path d="M1395.7,262.3c0,4.8,0,9.6,0,14.4,0,2.3-.5,3.7-3.3,3.7-2.7,0-4-1.1-4-3.8,0-6.8,0-13.6,0-20.4,0-2.8,0-5.6,0-8.5,0-2.5,1.2-3.6,3.6-3.6,2.4,0,3.7,1,3.6,3.6,0,4.8,0,9.6,0,14.4Z"/>
  <path d="M1331.7,262.4c0,5,0,10,0,14.9,0,2.3-.8,3.2-3.2,3.2-2.3,0-3.3-.6-3.3-3.1,0-10,0-19.9,0-29.9,0-2.3.8-3.3,3.2-3.3,2.3,0,3.3.8,3.3,3.2,0,5,0,10,0,14.9Z"/>
  <path d="M922.3,262.3c0-4.8,0-9.6,0-14.4,0-2.5.7-3.6,3.4-3.6,2.5,0,3.1,1.2,3,3.4,0,9.8,0,19.6,0,29.4,0,2.6-.8,3.5-3.4,3.5-2.5,0-3.1-1.1-3.1-3.3,0-5,0-10,0-14.9Z"/>
</svg>